<?xml version="1.0" encoding="utf-8"?>
<!-- Generator: Adobe Illustrator 27.2.0, SVG Export Plug-In . SVG Version: 6.00 Build 0)  -->
<svg version="1.1" id="Calque_1" xmlns="http://www.w3.org/2000/svg" xmlns:xlink="http://www.w3.org/1999/xlink" x="0px" y="0px"
	 viewBox="0 0 612.3585 183.952" style="enable-background:new 0 0 612.3585 183.952;" xml:space="preserve">
<style type="text/css">
	.st0{fill:#E2001A;}
	.st1{fill:#38424A;}
	.st2{fill:#3E434D;}
	.st3{fill:#E30613;}
</style>
<g>
	<g id="XMLID_5_">
		<path id="XMLID_6_" class="st0" d="M58.0154,33.4937l0.0017,0.0031l-0.0042-0.0031H58.0154z M77.3535,0L58.0129,11.1657L38.6761,0
			v22.33l19.3368,11.1637L38.6761,44.6624v22.3288L58.0129,55.828l19.3406,11.1632V44.6624l19.3349-11.1687L77.3535,22.33V0z"/>
		<polygon id="XMLID_27_" class="st0" points="0,33.4937 19.3368,44.6624 38.6761,33.4937 19.3368,22.3288 		"/>
	</g>
	<g>
		<path class="st1" d="M106.8194,61.259V38.7737l9.1035-5.291l-9.1035-5.2905V5.7068h23.8086
			c15.4053,0,25.3643,9.959,25.3643,27.4648s-9.4922,28.0874-25.0527,28.0874H106.8194z M119.0352,50.989h10.8145
			c7.625,0,13.9277-4.7461,13.9277-16.728c0-13.227-5.8359-18.2842-16.0283-18.2842h-8.7139V50.989z"/>
		<path class="st1" d="M194.8135,31.3821v21.3184c0,3.1899,0.3887,6.9248,1.4004,8.5586h-11.2041
			c-0.3887-1.2451-0.7002-2.5674-0.7773-3.8901c-3.1123,3.2676-7.8584,4.9795-13.5381,4.9795
			c-8.2471,0-13.6943-4.2793-13.6943-12.0596c0-3.8906,1.2451-6.6138,3.502-8.5586c2.5674-2.1787,6.3018-3.3457,12.9932-4.0459
			c7.1582-0.7783,10.2705-1.4004,10.2705-4.9795c0-4.5903-3.3457-5.3687-7.0811-5.3687c-4.5898,0-7.002,1.8672-7.3906,6.0688
			h-11.0488c0.4668-8.792,7.7031-13.4604,18.9844-13.4604C188.9786,19.9446,194.8135,23.9128,194.8135,31.3821z M174.8174,54.9568
			c5.9131,0,8.9482-3.1899,8.9482-9.103v-4.2793c-1.0117,0.9336-2.957,1.4785-6.6914,1.9453
			c-5.6797,0.7002-9.0254,1.9448-9.0254,6.3018C168.0489,53.0119,169.9942,54.9568,174.8174,54.9568z"/>
		<path class="st1" d="M206.5587,21.0339l8.4814,27.4653h0.1553l8.4805-27.4653h10.9707L221.0303,61.259h-12.293l-13.7715-40.2251
			H206.5587z"/>
		<path class="st1" d="M272.8448,41.8078c0,0.6226-0.0771,2.0229-0.0771,2.0229h-29.0215
			c0.3115,6.9248,3.501,10.1924,9.8037,10.1924c4.2012,0,7.9355-2.4121,8.791-5.2129h9.7256
			c-2.9561,9.103-9.1807,13.5381-18.8281,13.5381c-12.7598,0-20.541-8.792-20.541-21.1631c0-12.1372,8.4033-21.2407,20.541-21.2407
			C265.92,19.9446,272.8448,29.9036,272.8448,41.8078z M261.7188,36.8284c-1.0889-6.0688-3.7344-8.5586-8.8691-8.5586
			c-5.3691,0-8.6367,3.2681-9.1035,8.5586H261.7188z"/>
		<path class="st1" d="M281.8672,21.0339l9.1035,27.543h0.1553l8.792-27.543h11.4375l-16.8057,45.2817
			c-2.335,6.3027-6.2246,9.1035-13.6943,9.1035c-2.6445,0-4.5898-0.1553-6.9238-0.3887V65.927
			c2.334,0.3115,4.2793,0.3887,5.835,0.3887c3.1123,0,4.9014-2.1777,4.9014-5.0566c0-0.7002-0.0771-1.4004-0.4668-2.4897
			l-14.1602-37.7354H281.8672z"/>
		<path class="st1" d="M354.9219,5.7068c11.3594,0,17.6611,4.1235,17.6611,13.6934c0,5.7573-2.8008,9.3364-7.5469,11.6709
			c6.8467,1.9448,10.1924,7.1577,10.1924,14.0825c0,11.0483-9.2588,16.1055-19.6064,16.1055h-26.9209V5.7068H354.9219z
			 M353.3653,28.1921c4.4355,0,7.3916-2.1006,7.3916-6.6133c0-4.4351-2.9561-6.3804-8.2471-6.3804h-11.5928v12.9937H353.3653z
			 M354.0655,51.7668c5.6797,0,8.9482-2.334,8.9482-7.3135c0-5.3687-3.1904-7.936-8.7148-7.936h-13.3818v15.2495H354.0655z"/>
		<path class="st1" d="M389.0743,5.7068v9.103h-11.0479v-9.103H389.0743z M389.0743,21.0339V61.259h-11.0479V21.0339H389.0743z"/>
		<path class="st1" d="M431.3985,35.1946H420.584c-0.7002-4.5903-3.4238-6.9248-8.1699-6.9248
			c-6.6914,0-9.4141,6.5356-9.4141,13.0713c0,6.6133,2.7227,12.6821,9.1807,12.6821c4.9023,0,8.0137-2.8008,8.792-8.1694h10.6592
			c-1.4785,10.5815-8.6357,16.4946-19.373,16.4946c-12.5264,0-20.3066-8.9478-20.3066-20.6182
			c0-12.8379,7.7803-21.7856,20.54-21.7856C422.7628,19.9446,430.8536,25.5466,431.3985,35.1946z"/>
		<path class="st1" d="M445.3223,5.7068v29.7988l13.9277-14.4717h13.0713l-15.1719,14.7832l16.8828,25.4419h-13.3818
			l-11.0488-17.9727l-4.2793,4.1235V61.259h-11.0479V5.7068H445.3223z"/>
		<path class="st1" d="M479.709,61.259V28.4255h-6.6133v-7.3916h6.6133v-2.9565c0-8.4028,5.5244-12.3706,13.46-12.3706
			c0.7783,0,2.5684,0.0776,5.8359,0.311v8.2471c-1.4004-0.1553-2.8008-0.2334-3.9688-0.2334c-3.1895,0-4.2783,1.2451-4.2783,4.6685
			v2.334h7.624v7.3916h-7.624V61.259H479.709z"/>
		<path class="st1" d="M540.8614,41.1853c0,12.9937-8.4805,21.1631-20.8516,21.1631c-12.6826,0-20.7734-8.481-20.7734-21.1631
			c0-12.8374,8.1689-21.2407,20.7734-21.2407C532.7696,19.9446,540.8614,28.4255,540.8614,41.1853z M520.0098,54.0232
			c6.5352,0,9.8037-4.9019,9.8037-12.8379c0-6.5356-2.2568-12.9155-9.8818-12.9155c-6.1465,0-9.6475,4.6685-9.6475,12.9155
			C510.2842,49.3547,513.7071,54.0232,520.0098,54.0232z"/>
		<path class="st1" d="M570.1133,20.3337v10.2705c-1.0889-0.2334-2.4121-0.3892-3.9678-0.3892
			c-8.0137,0-10.8926,5.5239-10.8926,12.9155V61.259h-11.0488V21.0339h10.5039v7.4692h0.1553
			c2.1006-5.0571,7.3135-8.5586,12.8379-8.5586C568.7911,19.9446,569.5684,20.178,570.1133,20.3337z"/>
		<path class="st1" d="M612.3585,5.7068V61.259h-10.5039v-5.1353h-0.1553c-2.4121,4.124-6.6914,6.2246-12.2158,6.2246
			c-11.9814,0-18.0498-10.1147-18.0498-21.5518c0-11.1265,6.2236-20.852,17.8164-20.852c4.8242,0,9.4922,2.1011,11.9043,5.9912
			h0.1562V5.7068H612.3585z M592.2071,54.0232c6.3018,0,9.4922-4.9019,9.4922-12.9932c0-7.314-2.8008-12.7603-9.5703-12.7603
			c-6.3018,0-9.6475,5.0576-9.6475,12.8379C582.4815,47.4875,585.4376,54.0232,592.2071,54.0232z"/>
	</g>
</g>
<g>
	<path class="st2" d="M212.2955,106.2061c-5.6872,0-11.5648,2.6602-14.9751,8.1557h-0.2874v-6.8244h-12.8041v49.0175h13.4672
		v-25.6939c0-9.9561,3.1279-14.0308,10.4288-14.0308c6.2583,0,8.6285,3.9814,8.6285,12.0413v27.6833h13.4609v-30.1506
		C230.2144,114.2673,226.6111,106.2061,212.2955,106.2061"/>
	<path class="st2" d="M265.2916,137.59c0,2.94-0.3782,11.2836-10.9041,11.2836c-4.3609,0-8.2465-1.2355-8.2465-6.2583
		c0-4.9308,3.7923-6.3529,7.9616-7.2026c4.173-0.764,8.916-0.8548,11.1891-2.8442V137.59z M278.7551,120.1463
		c0-11.7539-11.7589-13.94-21.5208-13.94c-11,0-22.2823,3.7948-23.0388,16.406h13.4609c0.4791-5.3128,3.7923-7.393,8.9147-7.393
		c4.7404,0,8.7205,0.8472,8.7205,6.634c0,5.4981-7.6804,5.2157-15.9269,6.4487c-8.3448,1.1347-16.6897,3.7923-16.6897,14.8805
		c0,10.0494,7.3968,14.699,16.6897,14.699c5.9734,0,12.2292-1.6163,16.4968-6.0717c0.0946,1.6138,0.4741,3.2275,0.9456,4.7429
		h13.6526c-1.2305-1.992-1.7045-6.45-1.7045-10.9016V120.1463z"/>
	<path class="st2" d="M305.7708,116.3537c6.5407,0,9.4782,3.6007,10.7125,10.4276h-21.8965
		C294.772,122.9927,297.2368,116.3537,305.7708,116.3537 M317.2384,141.3844c-0.8485,3.0308-5.2144,6.3541-10.618,6.3541
		c-7.485,0-11.658-3.8906-12.0338-12.4221h35.3574c0.9506-15.0747-7.1093-29.1105-23.7977-29.1105
		c-14.8831,0-25.027,11.1916-25.027,25.888c0,15.168,9.5779,25.7897,25.027,25.7897c11.092,0,19.1519-4.9371,22.9454-16.4993
		H317.2384z"/>
	<polygon class="st2" points="356.1121,130.4828 372.2306,107.5373 357.3425,107.5373 348.8086,120.3376 340.1801,107.5373
		324.8218,107.5373 340.9403,130.7652 323.3089,156.5549 338.381,156.5549 348.622,141.0995 358.8579,156.5549 374.2188,156.5549
		"/>
	<polygon class="st2" points="144.8002,127.4448 177.6022,127.4448 177.6022,115.88 144.8002,115.88 144.8002,101.3752
		180.541,101.3752 180.541,88.8611 129.9122,88.8611 129.9122,115.9481 141.6169,122.7057 129.9122,129.4645 129.9122,156.554
		181.2999,156.554 181.2999,144.0349 144.8002,144.0349 	"/>
	<polygon class="st3" points="94.1184,109.1209 94.1184,81.952 70.5854,95.5365 47.0575,81.952 47.0575,109.1209 70.5854,122.7054
		70.5879,122.7054 70.5905,122.7079 70.5854,122.7054 47.0575,136.2949 47.0575,163.4601 70.5854,149.8794 94.1184,163.4601
		94.1184,136.2949 117.64,122.7054 	"/>
	<polygon class="st3" points="23.5279,109.1209 0,122.7054 23.5279,136.2949 47.0584,122.7054 	"/>
	<path class="st2" d="M183.6038,181.8075l1.7108-2.05c1.1863,0.9783,2.4269,1.5986,3.9323,1.5986
		c1.1851,0,1.8987-0.4703,1.8987-1.2418v-0.0378c0-0.7325-0.4501-1.1095-2.6513-1.673c-2.6526-0.677-4.3634-1.4108-4.3634-4.0255
		v-0.0366c0-2.3891,1.9176-3.9701,4.608-3.9701c1.9188,0,3.5553,0.6026,4.8904,1.6743l-1.5053,2.1823
		c-1.1662-0.8094-2.3135-1.2986-3.4229-1.2986c-1.1095,0-1.6932,0.5081-1.6932,1.1473v0.0378c0,0.8649,0.5648,1.1473,2.8404,1.731
		c2.6703,0.6959,4.1756,1.6541,4.1756,3.9499v0.0378c0,2.6135-1.9932,4.081-4.8324,4.081
		C187.1969,183.9142,185.1848,183.2183,183.6038,181.8075"/>
	<polygon class="st2" points="199.7989,173.2309 195.7935,173.2309 195.7935,170.5594 206.7027,170.5594 206.7027,173.2309
		202.6961,173.2309 202.6961,183.7253 199.7989,183.7253 	"/>
	<path class="st2" d="M209.3934,170.5602h6.0175c1.6755,0,2.9728,0.4703,3.8377,1.3351c0.7337,0.7337,1.1283,1.7675,1.1283,3.0094
		v0.0378c0,2.1243-1.1473,3.4607-2.8203,4.081l3.2149,4.7026h-3.3838l-2.8215-4.2134h-2.2769v4.2134h-2.8959V170.5602z
		 M215.2231,176.9547c1.4108,0,2.2202-0.7527,2.2202-1.8621v-0.0378c0-1.2406-0.8649-1.881-2.2756-1.881h-2.8783v3.7809H215.2231z"
		/>
	<path class="st2" d="M222.8803,177.1806v-0.0378c0-3.7431,2.9539-6.8093,7.0147-6.8093c4.0634,0,6.9782,3.0283,6.9782,6.7714
		v0.0378c0,3.7431-2.9526,6.8092-7.0148,6.8092C225.7952,183.952,222.8803,180.9237,222.8803,177.1806 M233.845,177.1806v-0.0378
		c0-2.2567-1.6541-4.1378-3.9865-4.1378c-2.3324,0-3.9499,1.8432-3.9499,4.0999v0.0378c0,2.2567,1.6553,4.1378,3.9864,4.1378
		C232.2287,181.2805,233.845,179.4373,233.845,177.1806"/>
	<polygon class="st2" points="239.9222,170.5599 242.5937,170.5599 248.7625,178.6665 248.7625,170.5599 251.6206,170.5599
		251.6206,183.7258 249.1571,183.7258 242.7815,175.3558 242.7815,183.7258 239.9222,183.7258 	"/>
	<path class="st2" d="M254.6693,177.1806v-0.0378c0-3.7431,2.9161-6.8093,6.9025-6.8093c2.3689,0,3.7986,0.6405,5.1716,1.8054
		l-1.8231,2.2025c-1.0161-0.8472-1.9201-1.3364-3.4431-1.3364c-2.1067,0-3.781,1.8621-3.781,4.0999v0.0378
		c0,2.408,1.6554,4.1756,3.9878,4.1756c1.054,0,1.9945-0.2635,2.7282-0.7905v-1.8798h-2.9161v-2.5013h5.7175v5.7175
		c-1.3541,1.1473-3.2162,2.0878-5.6229,2.0878C257.4896,183.952,254.6693,181.0737,254.6693,177.1806"/>
	<polygon class="st2" points="270.4693,170.5599 280.4001,170.5599 280.4001,173.1369 273.3475,173.1369 273.3475,175.8084
		279.5541,175.8084 279.5541,178.3841 273.3475,178.3841 273.3475,181.1489 280.4947,181.1489 280.4947,183.7258 270.4693,183.7258
			"/>
	<path class="st2" d="M283.5433,170.5602h6.0175c1.6755,0,2.9728,0.4703,3.8377,1.3351c0.7337,0.7337,1.1296,1.7675,1.1296,3.0094
		v0.0378c0,2.1243-1.1473,3.4607-2.8215,4.081l3.2149,4.7026h-3.3839l-2.8215-4.2134h-2.2769v4.2134h-2.8959V170.5602z
		 M289.3742,176.9547c1.4095,0,2.2189-0.7527,2.2189-1.8621v-0.0378c0-1.2406-0.8649-1.881-2.2756-1.881h-2.8783v3.7809H289.3742z"
		/>
	<path class="st2" d="M303.7258,170.5596h6.1133c1.5041,0,2.6904,0.4135,3.4418,1.1674c0.6026,0.6014,0.9027,1.3339,0.9027,2.2366
		v0.0378c0,1.4864-0.7905,2.3147-1.731,2.8404c1.5243,0.5837,2.4648,1.4675,2.4648,3.2351v0.0378
		c0,2.408-1.9567,3.6107-4.9282,3.6107h-6.2634V170.5596z M309.2188,175.8824c1.2784,0,2.0878-0.4135,2.0878-1.3919v-0.0378
		c0-0.8649-0.677-1.354-1.8999-1.354h-2.8581v2.7837H309.2188z M309.9892,181.1863c1.2796,0,2.0499-0.4501,2.0499-1.4284v-0.0378
		c0-0.8838-0.6581-1.4297-2.1432-1.4297h-3.3473v2.8959H309.9892z"/>
	<path class="st2" d="M317.1944,177.1806v-0.0378c0-3.7431,2.9539-6.8093,7.0148-6.8093c4.0634,0,6.9782,3.0283,6.9782,6.7714
		v0.0378c0,3.7431-2.9514,6.8092-7.0148,6.8092C320.1092,183.952,317.1944,180.9237,317.1944,177.1806 M328.1603,177.1806v-0.0378
		c0-2.2567-1.6554-4.1378-3.9878-4.1378c-2.3323,0-3.9499,1.8432-3.9499,4.0999v0.0378c0,2.2567,1.6554,4.1378,3.9865,4.1378
		C326.5428,181.2805,328.1603,179.4373,328.1603,177.1806"/>
	<polygon class="st2" points="334.2363,170.5599 336.9066,170.5599 343.0766,178.6665 343.0766,170.5599 345.9347,170.5599
		345.9347,183.7258 343.47,183.7258 337.0957,175.3558 337.0957,183.7258 334.2363,183.7258 	"/>
	<path class="st2" d="M349.5662,170.5601h5.135c4.1377,0,6.9971,2.8404,6.9971,6.5458v0.0378c0,3.7053-2.8593,6.5823-6.9971,6.5823
		h-5.135V170.5601z M354.7012,181.1112c2.3701,0,3.9688-1.5986,3.9688-3.931v-0.0366c0-2.3336-1.5986-3.9688-3.9688-3.9688h-2.2379
		v7.9363H354.7012z"/>
	<path class="st2" d="M363.6556,181.8075l1.7108-2.05c1.1851,0.9783,2.4269,1.5986,3.9322,1.5986
		c1.1838,0,1.8987-0.4703,1.8987-1.2418v-0.0378c0-0.7325-0.4514-1.1095-2.6526-1.673c-2.6513-0.677-4.3634-1.4108-4.3634-4.0255
		v-0.0366c0-2.3891,1.9188-3.9701,4.608-3.9701c1.9188,0,3.5565,0.6026,4.8904,1.6743l-1.504,2.1823
		c-1.1662-0.8094-2.3135-1.2986-3.4242-1.2986c-1.1082,0-1.6919,0.5081-1.6919,1.1473v0.0378c0,0.8649,0.5635,1.1473,2.8405,1.731
		c2.6703,0.6959,4.1756,1.6541,4.1756,3.9499v0.0378c0,2.6135-1.9945,4.081-4.8336,4.081
		C367.2474,183.9142,365.2353,183.2183,363.6556,181.8075"/>
</g>
</svg>
