<?xml version="1.0" encoding="utf-8"?>
<!-- Generator: Adobe Illustrator 27.2.0, SVG Export Plug-In . SVG Version: 6.00 Build 0)  -->
<svg version="1.1" id="Calque_1" xmlns="http://www.w3.org/2000/svg" xmlns:xlink="http://www.w3.org/1999/xlink" x="0px" y="0px"
	 viewBox="0 0 1888.7848 784.8611" style="enable-background:new 0 0 1888.7848 784.8611;" xml:space="preserve">
<style type="text/css">
	.st0{fill:#FFFFFF;}
	.st1{fill:none;stroke:#C42729;stroke-width:7;}
	.st2{fill:#FFFFFF;stroke:#FFFFFF;stroke-width:2;}
</style>
<path class="st0" d="M1026.869,547.3179c2.4526,0,8.4454,2.4526,10.0793,3.8142l548.4152-3.8142v-1.3616l-548.4152-4.3589
	c-1.6339,1.3617-7.6267,3.8142-10.0793,3.8142h-32.42c-0.5446-2.4525-2.9971-4.9051-5.7205-4.9051
	c-2.7249,0-5.1774,2.4526-5.4498,4.9051h-28.8781c-5.7206-2.9972-10.3517-6.5391-14.4383-12.5335
	c-4.3589,5.9944-8.9916,9.5363-14.4399,12.5335h-28.8781c-0.5447-2.4525-2.7249-4.9051-5.4482-4.9051
	c-2.7249,0-5.4497,2.4526-5.722,4.9051h-32.9646c-2.7249-0.2739-8.173-2.4525-9.5347-3.8142l-548.4151,4.3589v1.3616
	l548.4151,3.8142c1.634-1.3616,7.6284-3.8142,10.0793-3.8142h32.42c0.5447,2.7249,2.9972,4.9036,5.722,4.9036
	c2.4511,0,4.6313-2.1786,5.176-4.9036h29.6951c5.1774,2.9973,9.8086,6.5391,13.8952,12.2596
	c4.0865-5.7205,8.4454-9.2624,13.8937-12.2596h29.4227c0.5447,2.7249,2.725,4.9036,5.4498,4.9036
	c2.451,0,4.9036-2.1786,5.4482-4.9036H1026.869z"/>
<polyline class="st1" points="3.5,500.4642 3.5,3.5 500.4642,3.5 "/>
<polyline class="st1" points="1885.2848,284.3969 1885.2848,781.3611 1388.3206,781.3611 "/>
<path class="st0" d="M1177.1753,642.8506c2.8379-4.201,7.1504-8.628,13.5083-8.628c5.9016,0,10.8965,3.7461,10.8965,11.1254
	c0,8.7394-7.1503,12.9405-17.7079,16.4592l0.5679,2.4974c1.7021-0.5679,4.427-1.2487,6.9244-1.2487
	c6.4695,0,14.5295,4.314,14.5295,15.2104c0,11.9192-5.6755,17.8223-13.9617,17.8223c-6.358,0-11.011-3.1783-13.8488-5.9031
	c-0.7953-0.6808-1.5891-0.6808-2.3845,0c-1.0212,0.6808-2.4973,2.157-2.6104,3.6332c0,1.3616,0.4535,2.3829,1.9296,3.8591
	c1.3617,1.2487,5.7886,3.6332,10.7834,3.6332c7.9457,0,29.4011-8.2876,29.4011-26.9037c0-8.1731-5.9031-15.4379-15.5524-17.2545
	v-0.2275c2.9523-2.0425,5.9032-4.4269,7.6052-6.242c2.157-2.2715,3.4056-4.7689,3.4056-7.9471c0-8.5135-6.4694-14.87-16.3462-14.87
	c-5.903,0-10.8964,2.6104-14.0746,6.129l-4.7689,7.2663L1177.1753,642.8506z M1161.397,684.8502
	c-3.5187,6.8115-5.1077,7.1519-11.1239,7.1519h-22.1362l16.2332-17.4819c10.6705-11.4643,15.0974-17.9352,15.0974-27.8104
	c0-11.8063-8.9684-18.8436-18.7306-18.8436c-6.3566,0-11.5789,2.8378-14.9844,6.5839l-6.2421,9.1943l1.9296,1.7036
	c2.8379-4.314,7.2648-10.3301,15.3248-10.3301c8.6265,0,13.5083,5.7886,13.5083,15.5508s-7.1517,19.5244-13.9631,27.812
	c-5.5627,6.5839-11.9192,13.0534-18.1628,19.5244v2.0425h41.7738c1.2487-5.1078,2.3844-10.2156,3.746-14.3021L1161.397,684.8502z
	 M1088.1797,630.9313c10.3301,0,13.0549,17.5949,13.0549,33.6006s-2.7249,33.7136-13.0549,33.7136
	c-10.2156,0-13.168-17.8223-13.168-33.7136C1075.0117,648.5262,1077.6238,630.9313,1088.1797,630.9313 M1088.1797,627.8661
	c-16.7996,0-22.8156,20.2052-22.8156,36.7789c0,17.1415,6.016,36.6659,22.8156,36.6659c16.801,0,22.7042-20.2068,22.7042-36.7789
	C1110.8839,647.6179,1104.9807,627.8661,1088.1797,627.8661 M1054.9211,684.8502c-3.5188,6.8115-5.1079,7.1519-11.1256,7.1519
	h-22.1347l16.2332-17.4819c10.6705-11.4643,15.0974-17.9352,15.0974-27.8104c0-11.8063-8.9684-18.8436-18.7306-18.8436
	c-6.3564,0-11.5787,2.8378-14.9844,6.5839l-6.2421,9.1943l1.9296,1.7036c2.8378-4.314,7.2647-10.3301,15.3248-10.3301
	c8.6265,0,13.5067,5.7886,13.5067,15.5508s-7.1501,19.5244-13.9615,27.812c-5.5627,6.5839-11.9193,13.0534-18.1628,19.5244v2.0425
	h41.7737c1.2488-5.1078,2.3845-10.2156,3.7462-14.3021L1054.9211,684.8502z M982.8411,699.9476v-2.157
	c-6.3566-0.6808-6.9244-1.2487-6.9244-9.0798v-22.2493c0-10.6705-5.3353-17.027-14.3021-17.027
	c-3.1798,0-5.7902,1.3617-9.0814,3.4042c-2.8378,1.9311-5.4497,3.8607-7.8327,5.5627v-9.3088
	c-4.9948,2.3845-10.217,3.7461-15.0974,4.7689v1.815c5.9015,1.3632,6.5839,1.7036,6.5839,8.9684v24.0659
	c0,7.7181-0.6824,8.399-8.2876,9.0798v2.157h24.0659v-2.157c-6.471-0.6808-7.2648-1.2487-7.2648-9.0798v-27.3571
	c3.2913-2.8394,7.9457-5.6772,12.2597-5.6772c7.9456,0,10.443,5.5627,10.443,13.1679v18.9581c0,8.5135-0.9083,9.3073-7.7197,9.9882
	v2.157H982.8411z M896.9106,652.4983c9.9882,0,15.2104,11.2383,15.2104,24.4062c0,16.1187-5.6756,21.341-12.713,21.341
	c-9.6492,0-15.5523-10.7834-15.5523-25.5405C883.8558,659.9905,889.5314,652.4983,896.9106,652.4983 M898.1594,649.4345
	c-10.217,0-24.5192,8.5135-24.5192,27.0167c0,12.4855,9.1943,24.8597,24.5192,24.8597c11.1239,0,24.0643-8.8539,24.0643-26.7908
	C922.2237,660.7859,912.1211,649.4345,898.1594,649.4345 M868.192,699.9476v-2.157c-7.0374-0.6808-7.9456-1.3617-7.9456-9.1943
	V649.32c-4.882,2.157-10.2172,3.5187-15.325,4.4269v1.9296c6.3566,1.1357,6.8115,1.7036,6.8115,8.741v24.1788
	c0,7.8326-0.7953,8.5135-7.7197,9.1943v2.157H868.192z M855.3644,638.877c2.9524,0,5.2223-2.3845,5.2223-5.2223
	c0-3.0637-2.2699-5.3352-5.1078-5.3352c-2.8378,0-5.2223,2.2715-5.2223,5.3352C850.2567,636.4925,852.6411,638.877,855.3644,638.877
	 M839.7007,695.8611l-0.9083-2.157c-1.5892,0.7953-3.9736,1.8166-6.8115,1.8166c-2.9507,0-6.8114-1.8166-6.8114-11.1239v-29.7415
	h12.0337c1.3617-0.7938,1.7021-2.6104,0.6808-3.8591h-12.7145v-15.6653l-1.3616-0.2275l-7.1519,7.2648v8.628h-4.9949l-2.9507,2.8378
	l0.3405,1.0212h7.6052v33.2602c0,8.8539,3.7462,13.3954,10.8979,13.3954c1.0213,0,2.3845-0.4549,4.0866-1.2487L839.7007,695.8611z
	 M806.8954,699.9476v-2.157c-7.0389-0.6808-7.9473-1.3617-7.9473-9.1943V649.32c-4.8802,2.157-10.2155,3.5187-15.3248,4.4269v1.9296
	c6.358,1.1357,6.8113,1.7036,6.8113,8.741v24.1788c0,7.8326-0.7938,8.5135-7.7181,9.1943v2.157H806.8954z M794.0679,638.877
	c2.9508,0,5.2207-2.3845,5.2207-5.2223c0-3.0637-2.2699-5.3352-5.1078-5.3352c-2.8378,0-5.2223,2.2715-5.2223,5.3352
	C788.9586,636.4925,791.343,638.877,794.0679,638.877 M761.3771,690.8663c-2.6119,2.044-6.8115,3.9736-10.785,3.9736
	c-7.6052,0-15.7783-6.9244-15.7783-20.5457c0-16.4607,9.1943-21.228,14.8699-21.228c4.3141,0,8.9685,1.8166,11.6934,5.9031V690.8663
	z M778.2911,695.0673l-3.5202-0.455c-4.1995-0.4534-4.8803-1.2487-4.8803-7.0373v-68.9033
	c-4.0865,1.3616-11.4658,3.1782-17.027,3.8591v1.9295c7.9456,0.5679,8.5135,1.1358,8.5135,8.5135v17.8223
	c-2.7249-1.0212-5.9031-1.3617-7.6068-1.3617c-15.3234,0-28.7188,12.4855-28.7188,27.9234
	c0,15.6653,11.6918,23.9529,20.5457,23.9529c1.4762,0,4.314-0.6808,8.9684-3.4057l6.8115-4.0865v7.4922
	c6.2435-2.3845,14.4166-3.7462,16.914-4.201V695.0673z M705.0739,614.6981c-0.3405-1.4761-2.9508-4.9948-4.4269-5.1078
	c-4.427,2.9508-10.6705,7.2648-16.3462,10.8964l1.1342,2.0441l19.526-7.0374L705.0739,614.6981z M716.0847,682.2398
	c-1.4761,4.0865-3.4056,8.0601-5.4482,10.5576c-2.3845,2.9508-5.1093,4.0865-14.7571,4.0865c-5.5626,0-9.4218,0-11.5787-1.5892
	c-2.0441-1.4761-2.7249-3.8606-2.7249-9.0814v-22.4767h11.1254c9.9881,0,10.7834,1.0212,12.1451,8.8539h2.27v-21.1135h-2.27
	c-1.3617,7.3793-1.9296,8.628-12.2596,8.628h-11.0109v-27.1312c0-3.1783,0.3405-3.6317,3.6332-3.6317h8.1731
	c8.6265,0,11.6918,0.7938,13.5084,3.5187c1.4745,2.157,2.7233,4.7674,3.7461,9.4218l2.3829-0.3405
	c-0.3404-4.8818-0.7938-12.3741-0.9083-15.6653h-49.1514v2.27c8.5135,0.7953,9.4218,1.2487,9.4218,11.6918v46.2007
	c0,9.5363-0.9083,10.4446-11.011,11.2383v2.27h53.238c1.1357-3.8591,3.2928-13.5083,3.8606-17.2545L716.0847,682.2398z"/>
<path class="st2" d="M1786.1743,255.8955c3.2694,0,4.0865,1.9079,4.0865,3.2695c0,10.0794-26.9703,34.054-56.9393,44.6796
	C1749.123,280.4148,1772.5529,255.8955,1786.1743,255.8955 M1712.0719,336.8093c0,5.1759,2.1802,13.0766,14.1675,13.0766
	c23.9729,0,51.4895-27.2426,72.4669-54.2144c1.0908-1.0893-0.2723-1.9063-0.8171-1.0893
	c-24.7915,31.603-50.1278,53.942-71.9221,53.942c-6.8114,0-9.5364-3.5418-9.5364-7.6284c0-7.6284,6.5392-21.2497,15.5292-35.1448
	c28.8782-9.8071,59.6642-34.3263,59.6642-46.586c0-2.4525-1.6355-4.6312-5.9944-4.6312
	C1772.0083,254.5339,1712.0719,289.9511,1712.0719,336.8093 M1537.4414,489.1023c-4.6312,0-6.5391-2.9972-6.5391-6.5391
	c0-18.254,41.9547-56.1222,93.4459-95.3521C1593.2899,435.431,1555.1493,489.1023,1537.4414,489.1023 M1621.8955,348.5243
	c-2.9955,0-4.9034-1.3616-4.9034-4.3588c0-15.8015,48.2214-88.2699,72.196-88.2699c5.722,0,7.9006,3.2695,7.9006,7.6284
	c0,3.2696-1.3615,7.6284-2.9969,11.4427l-12.532,20.1604C1669.8447,312.2901,1640.9667,348.5243,1621.8955,348.5243
	 M1689.4604,254.5339c-16.3461,0-48.4938,27.2441-58.3008,41.1377c-8.9902,12.532-17.4357,31.8753-17.4357,44.4073
	c0,4.6312,1.3617,9.8071,8.1715,9.8071c14.7123,0,33.7833-19.3418,49.5848-39.2298c-4.9052,8.7177-23.9746,41.1378-45.2258,73.5577
	c-53.9421,41.1378-96.7139,79.006-96.7139,98.3493c0,4.0865,2.1787,7.9008,8.1731,7.9008
	c21.5221,0,63.4768-50.674,106.5223-118.2373c29.1505-20.705,50.6741-36.5065,71.6515-60.7534
	c4.3589-4.9036,8.7178-10.3533,13.3489-16.0739c0.5448-0.817-0.5446-1.634-1.0892-0.817
	c-4.6328,5.7205-8.7194,10.8964-12.8059,15.5291c-22.8835,26.6979-47.1306,43.0441-69.4712,59.3902
	c24.2471-38.4128,46.3152-75.1917,70.2898-113.0615c-2.1803,0.2724-8.173,0.5446-10.6257,0.5446l-8.173,12.8058
	c0.8171-2.1802,1.0892-4.3589,1.0892-6.2668C1698.4504,258.0757,1695.455,254.5339,1689.4604,254.5339 M1636.8817,208.4926
	c-5.722,0-10.0811,6.2652-10.0811,10.8964c0,2.7249,1.3633,4.9035,4.9053,4.9035c5.9927,0,10.3516-6.2652,10.3516-10.8964
	C1642.0575,210.6713,1640.6958,208.4926,1636.8817,208.4926 M1567.9551,349.886c18.2524,0,43.5903-27.2426,65.1123-54.4867
	c0.5447-0.817-0.5446-1.634-1.0894-0.817c-23.4298,29.4228-47.1321,53.942-63.7506,53.942c-2.4525,0-4.0865-1.0893-4.0865-3.8141
	c0-4.3589,8.7178-16.3462,15.5292-26.9718l38.9576-61.2981c-1.9065,0.2724-7.3562,0.5446-10.6243,0.5446l-4.3586,7.0837
	c-7.9009,11.4427-16.6202,22.8853-24.7933,33.237c-0.817,1.0909,0.5463,1.3632,1.0909,0.8186
	c2.451-2.9972,6.2651-7.6284,10.0793-12.8058l-16.6184,26.4271c-6.5392,10.3517-13.0767,21.522-13.0767,29.9675
	C1560.3267,346.3441,1562.5052,349.886,1567.9551,349.886 M1527.9082,297.3056c-0.8186,1.0909,0.5447,1.3632,1.0894,0.8186
	l10.624-13.3505l-17.1631,26.9718c-6.5375,10.3517-13.0767,21.7944-13.0767,29.9675c0,4.6312,2.1786,8.1731,7.3561,8.1731
	c18.7971,0,43.8627-27.2426,65.3846-54.4867c0.5447-0.817-0.5447-1.634-1.0894-0.817
	c-23.4298,29.4228-46.8599,53.942-64.0229,53.942c-2.1802,0-3.8142-1.0893-3.8142-3.8141c0-5.4482,8.99-16.6185,15.5292-26.9718
	l47.9492-75.4641h21.2498v-1.3616h-20.4329l16.3463-25.8825c-2.1803,0.2723-7.9009,0.5446-10.3534,0.5446l-16.0739,25.3378h-21.7943
	v1.3616h20.9773l-9.5347,14.9845C1548.067,271.1523,1537.7153,284.7737,1527.9082,297.3056 M1449.9932,349.886
	c23.7023,0,44.6797-12.2596,63.4767-33.5093c6.5392-7.3561,12.532-14.7122,17.7095-20.9774c0.5446-0.817-0.5447-1.634-1.0894-0.817
	c-5.722,7.0822-11.4426,13.8936-17.437,20.705c-17.9801,20.4327-37.5958,31.603-58.5732,33.2369
	c27.7888-6.539,46.0413-36.7788,46.0413-67.0186c0-9.2639-1.634-18.5264-5.4481-26.9718c4.3588-4.9035,7.9006-10.081,7.9006-13.349
	c0-1.3632-0.2722-3.5419-3.8141-3.5419c-4.359,0-7.0839,4.9035-7.0839,8.9901c0,2.4525,0,4.0865,1.634,7.6284
	c-8.1731,10.6241-25.6086,32.9646-33.7816,43.0441c-0.817,1.0909,0.5447,1.6356,1.3632,0.5462
	c12.2581-15.5292,26.9702-34.0555,32.9647-42.2286c2.1786,4.6312,3.2679,9.5347,3.2679,16.0739
	c0,20.1603-14.7107,46.0412-30.2399,61.8428c-8.7177,8.9916-17.4354,14.7122-23.9745,14.7122
	c-10.6256,0-16.6185-6.2668-17.1632-12.8043c4.0865-3.5419,9.8071-8.9901,9.8071-11.9872c0-1.9079-1.3617-2.7249-3.2695-2.7249
	c-3.5404,0-8.4454,3.2696-8.4454,11.4427c0,10.8979,7.9006,16.3461,16.8923,17.4355
	C1443.1818,349.886,1448.3577,349.886,1449.9932,349.886 M1449.9932,255.8955c3.2695,0,4.0865,1.9079,4.0865,3.2695
	c0,10.0794-26.9702,34.054-56.9393,44.6796C1412.942,280.4148,1436.3718,255.8955,1449.9932,255.8955 M1375.8907,336.8093
	c0,5.1759,2.1802,13.0766,14.1675,13.0766c23.9746,0,51.4895-27.2426,72.4669-54.2144c1.0908-1.0893-0.2723-1.9063-0.817-1.0893
	c-24.7916,31.603-50.1278,53.942-71.9222,53.942c-6.8114,0-9.5363-3.5418-9.5363-7.6284c0-7.6284,6.5391-21.2497,15.5292-35.1448
	c28.8781-9.8071,59.6641-34.3263,59.6641-46.586c0-2.4525-1.6355-4.6312-5.9944-4.6312
	C1435.8271,254.5339,1375.8907,289.9511,1375.8907,336.8093 M1328.217,348.5243c-3.2697,0-4.3589-1.9063-4.3589-3.8141
	c0-5.4482,12.8043-21.522,19.8881-31.603c16.0739-22.6114,17.7078-31.0568,17.7078-36.7789c0-5.4482-2.1787-9.5347-5.7206-14.4383
	l-4.0865-5.7221c1.6342-1.9063,9.5348-11.9872,9.5348-16.0738c0-1.634-1.0894-2.451-2.7233-2.451
	c-3.8142,0-10.0809,4.6312-10.0809,13.0766c0,1.9063,0.5446,3.5419,1.6339,5.1759c-26.4255,40.0484-51.7617,68.6542-80.6399,92.6287
	l0.817,1.0894c32.9646-27.5165,57.7562-58.0286,80.6414-92.3549c2.7234,4.0865,6.8099,8.1731,6.8099,12.8043
	c0,6.2652-4.9034,14.9829-18.2524,33.5093c-8.4454,11.7149-19.3434,26.6978-19.3434,37.5959c0,7.0837,5.1759,8.7177,8.1731,8.7177
	c17.9817,0,43.318-27.2426,64.84-54.4867c0.5447-0.817-0.5447-1.634-1.0892-0.817
	C1368.5377,324.0051,1344.2909,348.5243,1328.217,348.5243 M1019.277,371.9542c-72.196,0-100.2571-11.9873-100.2571-22.0683
	c0-8.7177,20.4327-16.6185,49.8555-16.6185c46.0428,0,85.5466,17.7094,128.863,29.1505
	C1075.1268,368.4124,1049.5168,371.9542,1019.277,371.9542 M1417.307,76.6324c-30.5137,8.1731-54.2159,19.3433-74.9209,34.8725
	c-18.7972-18.254-49.0386-30.5137-90.4486-30.5137c-137.853,0-207.052,93.9905-207.052,155.5609
	c0,29.4244,16.8909,52.8527,58.8472,52.8527c68.9265,0,130.4969-65.657,130.4969-118.7821c0-14.4383-6.8114-26.4256-28.8781-26.4256
	c-29.969,0-79.0074,26.9703-100.5295,82.5479l1.0894,0.5447c22.8853-58.0286,73.0131-81.7308,99.1678-81.7308
	c19.3418,0,26.9702,9.2624,26.9702,23.4299c0,40.3208-68.1079,118.782-128.3168,118.782c-41.4116,0-57.4855-22.8853-57.4855-51.2187
	c0-60.4796,68.1096-154.1992,205.6903-154.1992c39.7761,0,70.5621,12.2596,89.0869,30.2413
	c-35.6896,27.2441-62.3875,67.0186-98.894,125.3211c-35.6895,56.6669-71.9237,102.9805-139.2162,122.8686
	c-43.5887-11.1703-89.6315-28.8781-134.0389-28.8781c-28.0596,0-51.2172,7.6284-51.2172,17.9802
	c0,11.1703,29.1505,23.7023,101.6188,23.7023c32.1477,0,59.6642-3.5419,83.6372-9.8071
	c18.5264,4.3589,37.5973,7.6284,58.5747,7.6284c25.6086,0,78.189-4.9051,124.7765-60.2088l-1.3633-1.0894
	c-34.054,41.4101-78.7336,59.9349-123.4132,59.9349c-17.1631,0-34.8726-3.2696-53.3973-7.9007
	c71.3774-20.1604,109.792-65.1124,138.1254-111.426c8.7178-14.4398,17.1632-27.2441,30.7845-50.4001
	c23.9745-40.5931,43.5902-67.2926,65.9309-86.0912c11.1686,11.7149,17.4353,25.6101,17.4353,40.0484
	c0,38.1421-30.2412,84.1834-58.5747,84.1834c-10.624,0-15.2552-5.7221-15.2552-12.8043c0-17.9817,17.4354-40.3208,44.1349-49.3108
	l-0.2738-1.3632c-22.3391,7.0838-45.2244,28.3334-45.2244,50.674c0,8.1731,5.4497,14.7106,17.437,14.7106
	c37.3236,0,63.4768-38.1405,63.4768-75.7364c0-18.254-7.356-36.7789-21.7943-51.4911
	c20.1604-16.6185,42.7717-26.6995,73.2854-35.1449L1417.307,76.6324z M907.407,255.8955c3.2695,0,4.0865,1.9079,4.0865,3.2695
	c0,10.0794-26.9717,34.054-56.9392,44.6796C870.3558,280.4148,893.7858,255.8955,907.407,255.8955 M833.3046,336.8093
	c0,5.1759,2.1787,13.0766,14.166,13.0766c23.9745,0,51.491-27.2426,72.4684-54.2144c1.0893-1.0893-0.2724-1.9063-0.817-1.0893
	c-24.7916,31.603-50.1293,53.942-71.9238,53.942c-6.8113,0-9.5347-3.5418-9.5347-7.6284c0-7.6284,6.5375-21.2497,15.5292-35.1448
	c28.8781-9.8071,59.6626-34.3263,59.6626-46.586c0-2.4525-1.6341-4.6312-5.9929-4.6312
	C893.2395,254.5339,833.3046,289.9511,833.3046,336.8093 M741.7667,348.5243c-2.9971,0-4.9035-1.3616-4.9035-4.3588
	c0-15.8015,48.2215-88.2699,72.196-88.2699c5.7206,0,7.9008,3.2695,7.9008,7.6284c0,3.2696-1.3632,7.6284-2.9972,11.4427
	l-14.1675,22.339C787.2633,315.2873,760.0207,348.5243,741.7667,348.5243 M751.8476,294.5823
	c-17.437,21.2497-29.6967,35.1433-50.674,52.8527l0.817,1.0893c12.5319-10.0794,27.7888-25.3362,43.3179-44.1349
	c-6.539,11.715-11.715,25.8809-11.715,35.6895c0,4.6312,1.3617,9.8071,8.1731,9.8071c14.7122,0,33.7817-19.3418,49.5831-39.2298
	l-0.5446,1.0893c-6.5375,10.3517-13.0766,21.7944-13.0766,29.9675c0,4.6312,2.1802,8.1731,7.3561,8.1731
	c18.7971,0,43.8626-27.2426,65.3846-54.4867c0.5447-0.817-0.5446-1.634-1.0894-0.817c-23.4299,29.4228-46.8599,53.942-64.023,53.942
	c-2.1802,0-3.8141-1.3616-3.8141-3.8141c0-4.6312,8.9901-16.6185,15.5291-26.9718l108.9749-171.907
	c-2.1802,0.2723-7.9006,0.5447-10.3532,0.5447l-78.4614,123.4147c0.817-2.1802,1.0894-4.3589,1.0894-6.2668
	c0-5.4482-2.9973-8.9901-8.9901-8.9901C793.2578,254.5339,762.744,280.4148,751.8476,294.5823 M605.3805,348.5243
	c-2.9972,0-4.9035-1.3616-4.9035-4.3588c0-15.8015,48.2215-88.2699,72.1945-88.2699c5.7221,0,7.9008,3.2695,7.9008,7.6284
	c0,3.2696-1.3617,7.6284-2.9957,11.4427l-14.4399,23.1576C650.3325,316.1043,623.3607,348.5243,605.3805,348.5243
	 M672.9454,254.5339c-16.3461,0-48.4938,27.2441-58.3025,41.1377c-8.9901,12.532-17.4355,31.8753-17.4355,44.4073
	c0,4.6312,1.3617,9.8071,8.1731,9.8071c14.7106,0,34.3264-19.888,50.1278-39.7745l-1.0893,1.634
	c-6.5391,10.3517-13.0766,21.522-13.0766,29.9675c0,4.6312,2.1786,8.1731,7.6284,8.1731c18.2525,0,43.5888-27.2426,65.1123-54.4867
	c0.5447-0.817-0.5446-1.634-1.0908-0.817c-23.4283,29.4228-47.1307,53.942-63.7491,53.942c-2.4525,0-4.0865-1.0893-4.0865-3.8141
	c0-5.7206,7.3561-14.166,19.3419-32.9647l35.1449-55.3052c-1.9063,0.2724-7.3561,0.5446-10.6257,0.5446l-8.1731,12.8058
	c0.8186-2.1802,1.0909-4.3589,1.0909-6.2668C681.9354,258.0757,678.9382,254.5339,672.9454,254.5339 M562.3364,297.3056
	c-0.817,1.0909,0.5447,1.3632,1.0893,0.8186l10.3533-13.3505l-16.8908,26.9718c-6.5391,10.3517-13.0782,21.7944-13.0782,29.9675
	c0,4.6312,2.1802,8.1731,7.3561,8.1731c18.7987,0,43.8626-27.2426,65.3846-54.4867c0.5447-0.817-0.5446-1.634-1.0893-0.817
	c-23.4299,29.4228-46.8599,53.942-64.0231,53.942c-2.1786,0-3.8141-1.3616-3.8141-3.8141c0-4.6312,8.9916-16.6185,15.5292-26.9718
	l108.9749-171.907c-2.1802,0.2723-7.9007,0.5447-10.3533,0.5447l-70.2882,110.8828l-4.0865,6.2652
	C579.4996,275.2389,570.5095,286.6815,562.3364,297.3056 M456.9049,348.5243c-2.9972,0-4.9035-1.3616-4.9035-4.3588
	c0-15.8015,48.2215-88.2699,72.1961-88.2699c5.7205,0,7.8992,3.2695,7.8992,7.6284c0,3.2696-1.3617,7.6284-2.9956,11.4427
	l-12.532,20.1604l-1.9079,2.9972C501.8569,316.1043,474.885,348.5243,456.9049,348.5243 M524.4698,254.5339
	c-16.3462,0-48.4938,27.2441-58.3025,41.1377c-17.4355,21.522-29.6951,34.8725-49.5832,51.7634l0.817,1.0893
	c12.2596-10.0794,27.2441-24.7915,42.501-43.0456c-6.2668,11.4426-11.1703,25.0654-11.1703,34.6002
	c0,4.6312,1.3617,9.8071,8.173,9.8071c14.7122,0,33.7817-19.3418,49.5832-39.2298l-0.5446,1.0893
	c-6.5391,10.3517-13.0766,21.522-13.0766,29.9675c0,4.6312,2.1786,8.1731,7.6284,8.1731c18.2525,0,43.5887-27.2426,65.1123-54.4867
	c0.5447-0.817-0.5446-1.634-1.0908-0.817c-23.4283,29.4228-47.1307,53.942-63.7491,53.942c-2.4525,0-4.0866-1.0893-4.0866-3.8141
	c0-4.3589,8.1731-16.6185,15.5292-26.9718l38.9575-61.2981c-1.9063,0.2724-7.3561,0.5446-10.6241,0.5446l-8.1731,12.8058
	c0.817-2.1802,1.0894-4.3589,1.0894-6.2668C533.4598,258.0757,530.4626,254.5339,524.4698,254.5339 M438.654,255.0785
	c5.1774-9.5347,5.7221-10.8979,6.5391-12.2596c11.7149-22.3406,20.1603-38.6868,28.3334-38.6868
	c2.9972,0,4.0865,1.9079,4.0865,4.0865C477.613,217.2103,462.9008,238.46,438.654,255.0785 M521.748,78.2664
	c22.6114,0,29.6951,9.5363,29.6951,20.1604c0,27.7888-59.9365,97.26-197.2433,100.2572
	C382.5333,143.1064,449.0072,78.2664,521.748,78.2664 M314.9684,129.2128c32.9647,0,53.6697-25.0639,53.6697-47.9492
	c0-19.6157-14.9829-37.8682-50.4001-37.8682c-52.5804,0-84.1834,38.1405-84.1834,76.8273c0,39.2299,32.42,78.7336,108.7026,79.8229
	c-5.7221,14.4398-8.4454,27.5164-8.4454,38.6867c0,22.8853,9.8071,38.6852,38.9575,38.6852
	c23.1576,0,44.4073-7.8992,61.5705-18.5248c-41.6825,73.83-140.8488,192.0674-257.4521,192.0674
	c-71.9237,0-104.0699-43.3164-104.0699-86.6343c0-47.6768,38.1405-96.7154,106.7947-96.7154
	c45.2243,0,65.9293,27.2441,65.9293,54.4867c0,27.2441-20.705,54.2159-57.4839,54.2159c-3.8142,0-7.9008-0.2723-11.9873-0.817
	l-0.2723,1.3617c5.1759,0.817,10.0794,1.3617,14.7106,1.3617c38.6868,0,59.3918-26.6979,59.3918-54.2144
	c0-28.6058-22.339-57.7563-70.2882-57.7563c-69.7435,0-108.158,49.5832-108.158,98.0771c0,44.9519,34.0555,88.8145,108.4303,88.8145
	c129.9523,0,206.5072-94.809,257.1797-195.8817c25.3362-16.62,41.4101-38.6867,41.4101-49.04c0-2.9956-1.634-5.4482-5.7206-5.4482
	c-8.9901,0-18.7987,18.254-31.603,43.5903c-1.634,3.5419-3.5419,6.8114-5.7206,10.3517
	c-16.8908,11.1703-38.4144,19.3433-62.6613,19.3433c-23.156,0-33.237-10.0794-33.237-28.6058
	c0-13.3489,4.9035-29.9675,13.6228-47.4045c134.8559-2.7233,199.1512-70.5605,199.1512-101.6189
	c0-14.166-11.715-21.522-31.603-21.522c-73.5577,0-151.7482,61.2981-177.9015,121.7792
	c-73.8301-0.5446-103.2529-37.8682-103.2529-75.7379c0-38.9575,31.3291-78.1889,78.1889-78.1889
	c34.3263,0,49.0385,17.437,49.0385,36.5065c0,22.3406-20.1604,46.5875-52.308,46.5875V129.2128z"/>
<path class="st0" d="M1406.5038,428.2637c6.016,0,9.9896,5.2223,9.9896,11.2384c0,1.7036-0.6808,2.27-2.8378,2.3845
	c-6.584,0.2259-12.9404,0.2259-19.1841,0.2259C1396.2882,433.0326,1401.2831,428.2637,1406.5038,428.2637 M1423.8728,462.6596
	c-4.0867,3.8591-8.4006,5.6757-13.168,5.6757c-7.9471,0-16.5736-6.2436-16.8011-21.1136
	c13.5084-0.4549,28.038-1.5891,29.9691-1.8166c2.1553-0.4549,2.6102-1.4762,2.6102-3.9736c0-9.1943-7.7196-17.7079-17.3674-17.7079
	c-6.0176,0-12.1466,3.0653-16.9139,8.4005c-4.5415,4.9948-7.4922,12.1451-7.4922,19.9778c0,12.8275,8.286,24.2933,22.2491,24.2933
	c3.7462,0,11.5789-1.9311,18.9565-10.8979L1423.8728,462.6596z M1377.8979,475.0322v-3.4057
	c-6.8114-0.7938-7.4922-1.0212-7.4922-8.7394v-21.6814c0-11.1254-5.6758-17.4819-14.87-17.4819
	c-3.2913,0-6.4711,1.3617-9.5348,3.5187c-2.9523,1.8166-5.3353,3.5186-7.6067,5.2223v-9.0814
	c-4.8804,2.157-10.4431,3.6316-16.1188,4.6544v3.0638c6.2435,1.0228,6.9244,1.4762,6.9244,8.741v23.0446
	c0,7.3777-0.4535,7.9456-8.286,8.7394v3.4057h24.9725v-3.4057c-6.8098-0.6808-7.4922-1.0212-7.4922-8.7394v-26.2229
	c3.5201-3.0653,7.9471-5.9031,12.6016-5.9031c7.3777,0,10.2156,4.8819,10.2156,12.8275v18.9565
	c0,7.4923-0.6809,8.4005-7.2649,9.0814v3.4057H1377.8979z M1290.606,476.0535c4.769,0,8.0601,0.2274,11.0109,1.4762
	c3.1799,1.2487,4.9949,3.9736,4.9949,7.7197c0,6.9244-5.6757,12.4855-16.3461,12.4855c-8.5135,0-14.9829-4.5399-14.9829-10.6689
	c0-3.0653,2.1553-6.1306,5.1077-8.628C1282.4329,476.7358,1285.0448,476.0535,1290.606,476.0535 M1288.1085,427.5829
	c6.2437,0,10.6705,6.1306,10.6705,14.757c0,8.5135-4.4269,13.1679-9.6477,13.2809c-6.2435,0-10.6705-6.242-10.6705-14.757
	C1278.4608,432.3502,1283.0009,427.5829,1288.1085,427.5829 M1315.9205,424.9725c-4.5398,0.6808-10.217,1.3617-15.6653,1.5891
	c-3.4056-1.8166-7.2648-2.8378-11.1239-2.8378c-8.9685,0-20.6602,6.0161-20.6602,18.8436c0,7.8326,4.8818,13.0534,9.7622,15.0974
	c-1.8165,2.27-5.3352,5.3352-9.8751,7.0374c-0.1146,1.1357,0.2258,3.1782,1.2487,4.8819c1.4746,2.3829,4.3125,4.8803,8.2861,6.129
	c-2.4974,1.9311-6.8115,5.2223-9.0814,7.6068c-1.8167,1.7021-2.9508,3.972-2.8378,6.4695
	c0.1129,6.584,7.1517,14.0762,19.9792,14.0762c15.0974,0,28.7188-10.7834,28.7188-22.4767c0-11.2368-9.3088-13.5083-16.6865-13.5083
	c-3.7462,0-7.7197,0.1145-12.1467,0.1145c-5.1078,0-7.0374-2.27-7.0374-4.314c0-1.5891,1.8167-3.6316,3.4058-4.6544
	c1.8149,0.3404,3.972,0.5679,5.7886,0.5679c10.1027,0,20.3197-6.0161,20.3197-18.1627c0-3.972-1.3632-7.4923-3.2927-9.9881
	l6.4711,0.4534c1.8165-0.9083,4.0865-4.0865,5.1077-5.9031L1315.9205,424.9725z M1243.839,465.157
	c-2.0441,1.9296-6.2437,3.972-9.3088,4.0865c-3.4056,0-7.9457-2.7249-7.9457-8.5135c0-4.0865,2.3831-6.2436,6.9244-8.2876
	c2.3829-1.1342,7.8326-3.5187,10.3301-4.7674V465.157z M1262.2277,470.6053l-1.3617-3.4057
	c-1.1357,0.6808-2.7249,1.3632-4.201,1.3632c-1.9296,0-3.9719-1.7036-3.9719-6.9244v-20.8876c0-5.9031-1.1357-10.556-5.1094-13.9617
	c-2.496-2.0441-6.0161-3.0653-9.5347-3.0653c-6.697,1.3617-14.0763,5.6757-17.14,7.9456c-2.2716,1.5891-3.7462,2.9524-3.7462,4.6544
	c0,2.8378,2.9508,5.1078,5.1079,5.1078c1.702,0,2.9507-0.9083,3.5186-2.7234c1.0212-3.4057,1.9296-5.9031,3.2927-7.3793
	c1.2488-1.3617,2.9508-2.2699,5.2208-2.2699c5.5626,0,9.5363,4.5399,9.5363,12.6v1.7021
	c-2.4974,1.9311-10.8979,5.1093-17.8223,7.4922c-6.4709,2.157-9.4219,5.7902-9.4219,11.3513
	c0,7.4922,5.7887,14.1907,13.8488,14.1907c3.6332,0,8.9669-4.0865,13.6213-7.1518c0.5679,1.8166,1.2487,3.4057,2.8378,4.9948
	c1.1357,1.1342,3.6332,2.157,5.2223,2.157L1262.2277,470.6053z M1210.3513,470.8327l-1.1342-3.2927
	c-1.5891,0.7953-4.314,1.9311-7.0388,1.9311c-2.9509,0-6.6969-1.5907-6.6969-10.6705v-28.8333h12.2595
	c1.4762-0.9083,1.8165-3.7461,0.6809-4.8819h-12.9404v-15.4379l-1.7021-0.2274l-7.4923,7.7197v7.9456h-5.2223l-3.2911,3.5187
	l0.5679,1.3632h7.9456v32.8053c0,9.0814,4.0865,13.6228,11.3513,13.6228c1.1357,0,3.0654-0.4549,5.1078-1.5891L1210.3513,470.8327z
	 M1152.8009,428.2637c6.016,0,9.9896,5.2223,9.9896,11.2384c0,1.7036-0.6808,2.27-2.8379,2.3845
	c-6.5839,0.2259-12.9403,0.2259-19.1838,0.2259C1142.5837,433.0326,1147.5786,428.2637,1152.8009,428.2637 M1170.1683,462.6596
	c-4.0865,3.8591-8.399,5.6757-13.168,5.6757c-7.9456,0-16.572-6.2436-16.7996-21.1136c13.5084-0.4549,28.0378-1.5891,29.9675-1.8166
	c2.157-0.4549,2.6119-1.4762,2.6119-3.9736c0-9.1943-7.7197-17.7079-17.3689-17.7079c-6.0162,0-12.1451,3.0653-16.9142,8.4005
	c-4.5399,4.9948-7.4906,12.1451-7.4906,19.9778c0,12.8275,8.286,24.2933,22.2477,24.2933c3.7461,0,11.5789-1.9311,18.9581-10.8979
	L1170.1683,462.6596z M1105.8064,435.8704v-12.4871c-5.4497,2.2699-10.5575,3.7461-16.2332,4.6544v3.0638
	c6.5839,0.7953,7.0374,1.1358,7.0374,8.628v23.1576c0,7.3777-0.7938,8.0586-8.0586,8.7394v3.4057h26.7893v-3.4057
	c-8.967-0.6808-9.5349-1.3617-9.5349-8.7394v-20.0923c2.3829-6.471,6.2435-9.9897,9.3074-9.9897c1.9296,0,3.1782,0.6808,4.8818,2.27
	c0.6809,0.6808,1.7021,0.9083,3.0653,0.3404c2.2699-1.1342,3.7461-3.4057,3.7461-5.9031c0-2.7233-2.7249-5.7886-6.8114-5.7886
	c-5.5627,0-10.2172,6.0161-13.9633,12.1467H1105.8064z M1042.4644,437.9129h5.3352c13.6228,0,21.9088,4.7674,21.9088,16.3462
	c0,11.8062-8.4005,16.3462-17.7078,16.4607c-7.4923,0-9.5363-2.157-9.5363-10.1042V437.9129z M1042.4644,433.5989v-21.6814
	c0-3.5187,0.4548-4.7674,1.4761-5.4482c0.9083-0.6808,3.6332-1.2487,6.584-1.2487c10.6705,0,15.0974,6.471,15.0974,14.1892
	c0,9.4218-5.4482,14.1891-17.5948,14.1891H1042.4644z M1061.4224,434.8476c5.9032-1.7021,14.87-6.129,14.87-16.7996
	c0-5.2223-2.2699-10.2171-6.3564-12.9404c-3.6332-2.6119-8.6281-3.8606-17.1416-3.8606h-29.8545v3.6331
	c9.3088,0.6808,9.6493,1.3617,9.6493,10.6705v45.0649c0,9.3089-0.5679,9.9897-10.5575,10.6705v3.7461h25.655
	c8.9684,0,16.5735-1.3617,22.4767-4.6544c6.8099-3.6316,10.8965-9.5348,10.8965-17.14c0-11.4658-8.7411-16.3462-19.6375-18.1627
	V434.8476z M958.9199,443.3611h-20.7746c3.4056-9.4218,6.9259-19.184,10.5575-28.8317h0.2275L958.9199,443.3611z M988.2065,475.0322
	v-3.7461c-7.6051-0.6808-9.0813-1.7021-12.6-11.4643c-7.2648-19.2985-14.9845-41.2058-22.0219-60.2769l-3.9736,1.0213
	l-23.4979,59.0281c-3.972,10.1026-5.5628,10.6705-12.9404,11.6917v3.7461h25.4275v-3.7461
	c-8.628-0.7938-9.5347-1.9295-7.1519-8.9669c1.4763-4.5415,3.0653-9.0814,4.6544-13.6228h24.6322
	c2.2715,6.3581,4.427,12.1467,5.9031,16.4607c1.4761,4.314,0.6808,5.2208-6.8099,6.129v3.7461H988.2065z M915.8976,418.7289
	c-0.5679-6.584-1.1343-14.9845-1.1343-20.3197h-2.8378c-1.7036,2.157-2.4974,2.8378-5.6771,2.8378h-44.952
	c-3.1783,0-4.5399-0.2259-6.3566-2.8378h-2.6104c-0.2274,6.358-0.7953,13.7358-1.3617,20.7731h3.972
	c1.2487-5.1078,2.27-8.399,3.6332-10.2155c1.4746-2.4974,3.7462-3.4057,12.6-3.4057h7.3777v55.1691
	c0,8.9669-1.0213,9.9897-11.5772,10.556v3.7461h33.2585v-3.7461c-10.8964-0.5663-11.8046-1.7021-11.8046-10.556V405.561h8.0586
	c8.2876,0,9.9896,0.7953,11.9191,3.4057c1.3633,1.8166,2.4974,4.6544,3.6332,10.2155L915.8976,418.7289z M841.0912,418.161
	c-0.9084-7.6052-1.5892-11.9192-2.0441-16.0057c-4.7674-1.5891-9.5347-2.6104-14.5296-2.6104
	c-14.757,0-23.6109,9.1943-23.6109,20.3198c0,12.713,11.3513,18.2757,18.8436,22.2477c8.6264,4.4285,14.87,8.4005,14.87,16.8011
	c0,8.1731-5.1078,13.2809-13.5084,13.2809c-11.6917,0-16.6866-11.3513-18.3886-18.2757l-3.9736,0.9083
	c0.7938,6.129,2.2699,15.2104,3.1782,17.8223c1.1358,0.5663,2.8379,1.4746,5.5627,2.27c2.8378,1.0213,6.584,1.8166,11.3514,1.8166
	c15.2104,0,25.4275-9.4218,25.4275-21.6814c0-12.8275-10.8979-18.1628-19.8649-22.5897
	c-8.8554-4.427-14.3036-8.4005-14.3036-16.5736c0-5.7886,3.7461-12.1467,12.4871-12.1467c9.8751,0,12.5999,8.0602,14.5296,15.0974
	L841.0912,418.161z M791.1443,401.247h-27.925v3.6331c7.9456,0.4534,10.7835,1.9296,11.3513,6.8114
	c0.3405,3.1783,0.7954,8.399,0.7954,19.0695v26.9037h-0.3405l-47.2234-56.4178h-17.2545v3.6331
	c5.3353,0.4534,8.0601,1.3617,10.2171,4.0866c2.157,2.7249,2.3829,3.0653,2.3829,11.2384v24.6322
	c0,10.2172-0.3404,15.6653-0.7938,19.2985c-0.5679,5.3353-3.6332,6.8099-10.1027,7.1503v3.7461h27.8105v-3.7461
	c-7.8327-0.3404-10.556-1.815-11.1239-7.3777c-0.3405-3.4057-0.6808-8.8539-0.6808-19.0711v-27.6975h0.2259l48.1317,58.9137h3.972
	v-45.2924c0-10.6705,0.2275-15.8912,0.6808-19.4099c0.5679-4.6544,3.4058-6.1306,9.8768-6.471V401.247z M701.5824,456.1886
	c-1.5891,4.7674-3.8591,8.628-5.7902,10.785c-2.4974,2.8378-6.0161,3.7461-14.1891,3.7461c-5.5612,0-9.5348-0.1145-11.8047-1.4762
	c-2.0441-1.3632-2.8379-3.8591-2.8379-9.1943v-20.7747h10.6705c9.8752,0,10.6705,0.4549,12.2596,8.628h3.7462v-22.0218h-3.7462
	c-1.4761,7.7181-2.0441,8.5135-12.2596,8.5135h-10.6705v-25.2001c0-3.2928,0.3405-3.6332,3.8591-3.6332h9.0814
	c7.8326,0,10.8964,0.9083,12.2596,3.1783c1.4761,2.6119,2.6104,4.9948,3.7461,9.7622l3.8591-0.4534
	c-0.4534-6.471-1.0212-14.3036-1.1357-16.8011h-51.4214v3.6331c8.9669,0.7953,9.8752,1.1358,9.8752,11.1239v44.4986
	c0,9.1943-0.9083,10.1026-11.3513,10.8979v3.6316h55.7354c0.9083-3.4057,3.4057-14.5296,3.9736-18.3886L701.5824,456.1886z
	 M625.1884,394.4371c-2.044,0-5.1078,1.4746-5.1078,4.6544c0,1.4746,0.7938,2.27,1.5892,2.3829
	c3.972,0.6808,7.3777,3.1783,7.3777,7.3793c0,4.6529-3.4057,7.2648-9.1943,9.6477l1.2487,3.5202
	c7.4923-1.8166,15.4379-7.0388,15.4379-15.4394C636.5397,398.8641,630.4106,394.4371,625.1884,394.4371 M615.8795,475.0322v-3.4057
	c-7.4907-0.6808-8.5135-1.3617-8.5135-8.7394v-68.337c-3.8591,1.3616-10.8964,3.2928-17.14,3.8591v3.2928
	c7.2648,0.5679,8.0586,0.7938,8.0586,8.4005v52.7846c0,7.3777-1.0212,7.9456-8.399,8.7394v3.4057H615.8795z M537.6689,428.2637
	c6.0176,0,9.9897,5.2223,9.9897,11.2384c0,1.7036-0.6808,2.27-2.8379,2.3845c-6.5839,0.2259-12.9404,0.2259-19.184,0.2259
	C527.4534,433.0326,532.4482,428.2637,537.6689,428.2637 M555.0379,462.6596c-4.0865,3.8591-8.4005,5.6757-13.1679,5.6757
	c-7.9472,0-16.5737-6.2436-16.8011-21.1136c13.5083-0.4549,28.0379-1.5891,29.969-1.8166c2.157-0.4549,2.6104-1.4762,2.6104-3.9736
	c0-9.1943-7.7197-17.7079-17.3674-17.7079c-6.0161,0-12.1467,3.0653-16.9141,8.4005c-4.5414,4.9948-7.4922,12.1451-7.4922,19.9778
	c0,12.8275,8.286,24.2933,22.2493,24.2933c3.7462,0,11.5788-1.9311,18.9565-10.8979L555.0379,462.6596z M492.0377,465.0425
	c-2.8378,2.0441-6.9244,3.8606-10.8979,3.8606c-7.2648,0-15.6653-6.471-15.6653-19.9793c0-16.3462,9.7622-20.5457,14.87-20.5457
	c4.201,0,8.8555,1.8166,11.6933,5.7886V465.0425z M510.0859,468.6757l-3.7461-0.2275c-4.1996-0.4534-5.1078-1.0212-5.1078-6.9243
	v-66.9738c-4.2011,1.3616-11.9192,3.0653-18.0498,3.8591v3.2928c8.2876,0.5679,8.8554,0.9083,8.8554,8.286v15.0974
	c-2.4974-1.0212-6.0176-1.3617-7.4922-1.3617c-15.5524,0-29.6286,12.3726-29.6286,28.2654c0,16.0057,12.1466,24.4063,21.341,24.4063
	c1.2487,0,4.4269-0.6824,8.7409-3.1798l7.0389-4.1995v7.3793c6.8099-2.3845,15.5508-3.8606,18.0482-4.314V468.6757z"/>
</svg>
